<?xml version="1.0" encoding="UTF-8" standalone="no"?>
<svg
   xmlns:dc="http://purl.org/dc/elements/1.1/"
   xmlns:cc="http://creativecommons.org/ns#"
   xmlns:rdf="http://www.w3.org/1999/02/22-rdf-syntax-ns#"
   xmlns:svg="http://www.w3.org/2000/svg"
   xmlns="http://www.w3.org/2000/svg"
   xmlns:sodipodi="http://sodipodi.sourceforge.net/DTD/sodipodi-0.dtd"
   xmlns:inkscape="http://www.inkscape.org/namespaces/inkscape"
   version="1.1"
   x="0px"
   y="0px"
   viewBox="0 0 430 100"
   enable-background="new 0 0 100 100"
   xml:space="preserve"
   id="svg38"
   sodipodi:docname="logo_with_name.svg"
   inkscape:version="1.0.1 (3bc2e813f5, 2020-09-07)"
   width="430"
   height="100"><metadata
     id="metadata44"><rdf:RDF><cc:Work
         rdf:about=""><dc:format>image/svg+xml</dc:format><dc:type
           rdf:resource="http://purl.org/dc/dcmitype/StillImage" /><dc:title></dc:title></cc:Work></rdf:RDF></metadata><defs
     id="defs42"><rect
       x="98.245613"
       y="-0.16708438"
       width="201.50375"
       height="99.916458"
       id="rect846" /><rect
       x="99.248123"
       y="1.0025063"
       width="69.172935"
       height="97.243111"
       id="rect836" /></defs><sodipodi:namedview
     pagecolor="#ffffff"
     bordercolor="#666666"
     borderopacity="1"
     objecttolerance="10"
     gridtolerance="10"
     guidetolerance="10"
     inkscape:pageopacity="0"
     inkscape:pageshadow="2"
     inkscape:window-width="2560"
     inkscape:window-height="1387"
     id="namedview40"
     showgrid="false"
     inkscape:zoom="2.9925"
     inkscape:cx="197.68258"
     inkscape:cy="75.593331"
     inkscape:window-x="1192"
     inkscape:window-y="476"
     inkscape:window-maximized="1"
     inkscape:current-layer="svg38"
     inkscape:document-rotation="0" /><path
     fill-rule="evenodd"
     clip-rule="evenodd"
     d="m 44.516,31.751 c 0.222,-1.221 0.051,-2.647 0.629,-3.085 3.939,-2.996 2.395,-7.185 2.547,-10.948 0.173,-4.278 0.04,-8.569 0.04,-12.856 0.449,-0.012 0.897,-0.025 1.346,-0.037 0,1.858 0,3.715 0,5.572 0,3.5 -0.029,7.001 0.008,10.501 0.028,2.63 -0.688,5.416 2.296,7.288 0.75,0.472 0.689,2.234 1.094,3.745 9.67,1.735 17.663,6.536 22.856,15.403 3.956,6.753 5.024,14.082 3.653,21.683 C 76.38,83.462 62.521,94.543 47.829,94.167 33.033,93.786 19.832,82.505 17.741,68.18 15.441,52.412 23.947,35.872 44.516,31.751 Z m -2.838,37.002 c 4.395,0 8.43,0 12.503,0 0,-4.382 0,-8.425 0,-12.421 -4.34,0 -8.372,0 -12.503,0 0,4.222 0,8.078 0,12.421 z M 67.215,57.275 c -3.87,-0.371 -7.401,-0.708 -11.062,-1.059 0,4.325 0,8.272 0,12.72 3.766,-0.368 7.288,-0.712 11.062,-1.08 0,-3.52 0,-6.722 0,-10.581 z M 54.402,54.504 c -0.307,-3.197 -0.427,-5.928 -0.915,-8.591 -0.138,-0.755 -1.291,-1.782 -2.072,-1.874 -2.203,-0.261 -4.477,-0.272 -6.677,-0.015 -0.806,0.094 -2.003,1.131 -2.135,1.891 -0.479,2.737 -0.576,5.539 -0.842,8.589 3.19,0 6.026,0 8.862,0 1.096,0 2.193,0 3.779,0 z m 0.565,26.953 c 10.589,-1.614 10.611,-0.769 11.803,-11.938 -3.569,0.351 -7.077,0.696 -10.68,1.05 -0.375,3.646 -0.729,7.058 -1.123,10.888 z M 29.844,69.515 c 1.593,10.633 1.79,10.84 11.187,11.746 C 40.679,77.655 40.336,74.129 39.981,70.49 36.53,70.158 33.356,69.854 29.844,69.515 Z m 25.1,-24.876 c 0.406,3.524 0.771,6.68 1.151,9.972 3.654,0.313 7.08,0.607 10.566,0.906 C 65.596,45.785 65.518,45.675 54.944,44.639 Z M 41.112,44.418 c -9.364,0.974 -11.391,3.175 -10.487,11.127 3.149,-0.332 6.297,-0.666 9.416,-0.995 0.377,-3.573 0.703,-6.653 1.071,-10.132 z m 2.096,-2.121 c 3.361,0 6.425,0 9.499,0 -0.37,-6.687 -0.768,-7.311 -4.53,-7.295 -4.274,0.018 -4.739,0.681 -4.969,7.295 z M 27.876,57.853 c -7.508,0.723 -7.881,1.051 -7.273,6.321 0.279,2.425 2.871,3.366 7.273,2.565 0,-2.942 0,-5.909 0,-8.886 z m 48.044,1.105 c -2.292,-0.436 -4.533,-0.859 -6.866,-1.301 0,3.355 0,6.288 0,9.198 6.82,0.783 7.58,-0.046 6.866,-7.897 z m -32.637,24.78 c 0.935,7.139 1.18,7.468 6.057,6.939 4.744,-0.513 2.12,-4.499 3.935,-6.939 -3.788,0 -6.723,0 -9.992,0 z m 20.319,-1.942 c -9.116,0.988 -10.096,1.819 -9.698,8.238 6.362,-0.961 7.596,-2.01 9.698,-8.238 z M 32.942,44.421 c 8.759,-0.934 10.076,-2.148 9.236,-8.438 -5.304,0.357 -8.164,3.429 -9.236,8.438 z m 20.906,-8.615 c -0.068,6.778 2.054,8.481 9.573,7.941 -1.022,-5.09 -4.352,-7.465 -9.573,-7.941 z m 21.415,32.236 c -7.146,1.199 -7.605,1.803 -7.891,10.018 6.221,-1.989 7.741,-3.868 7.891,-10.018 z M 75.324,56.91 c -0.291,-5.313 -3.229,-7.936 -7.888,-9.059 1.255,9.216 0.172,8.251 7.888,9.059 z M 25.422,46.427 c 0.259,0.256 0.519,0.51 0.778,0.764 3.548,-0.944 6.37,-2.584 6.5,-7.642 -2.719,2.57 -4.998,4.723 -7.278,6.878 z m 46.149,32.324 c -4.763,0.624 -6.672,2.876 -6.599,7 2,-2.122 4.001,-4.243 6.599,-7 z m -45.999,0.726 c 2.078,2.048 4.156,4.098 6.939,6.841 -0.512,-5.002 -2.793,-6.849 -6.939,-6.841 z M 69.573,47.638 c 0.43,-0.373 0.86,-0.746 1.292,-1.119 -1.945,-2.183 -3.89,-4.365 -5.836,-6.547 -0.471,0.459 -0.939,0.919 -1.409,1.378 1.984,2.097 3.967,4.193 5.953,6.288 z M 51.695,30.17 c -1.69,-1.004 -2.597,-1.978 -3.349,-1.871 -0.778,0.112 -1.402,1.276 -2.093,1.98 0.688,0.548 1.36,1.512 2.066,1.535 0.827,0.028 1.681,-0.765 3.376,-1.644 z"
     id="path28"
     style="fill:#1da0c3;fill-opacity:1" /><path
     fill-rule="evenodd"
     clip-rule="evenodd"
     d="m 75.909,42.665 c -0.561,-4.304 -2.524,-6.816 -6.996,-7.274 4.646,-0.028 6.375,-2.592 6.598,-7.522 1.87,6.308 1.87,6.308 7.722,7.65 -4.703,0.799 -7.875,2.168 -7.324,7.146 z"
     id="path30"
     style="fill:#1da0c3;fill-opacity:1" /><path
     fill-rule="evenodd"
     clip-rule="evenodd"
     d="m 25.515,24.186 c -0.562,-4.304 -2.524,-6.816 -6.997,-7.273 4.647,-0.028 6.375,-2.592 6.598,-7.523 1.87,6.309 1.87,6.309 7.721,7.65 -4.703,0.8 -7.873,2.169 -7.322,7.146 z"
     id="path32"
     style="fill:#1da0c3;fill-opacity:1" /><path
     fill-rule="evenodd"
     clip-rule="evenodd"
     d="m 18.235,95.858 c -0.561,-4.305 -2.522,-6.816 -6.996,-7.273 4.647,-0.028 6.375,-2.593 6.598,-7.523 1.871,6.308 1.871,6.308 7.721,7.649 -4.703,0.802 -7.873,2.17 -7.323,7.147 z"
     id="path34"
     style="fill:#1da0c3;fill-opacity:1" /><path
     fill-rule="evenodd"
     clip-rule="evenodd"
     d="m 86.549,85.22 c -0.562,-4.305 -2.524,-6.816 -6.998,-7.274 4.648,-0.027 6.375,-2.591 6.598,-7.522 1.871,6.31 1.871,6.31 7.723,7.65 -4.704,0.8 -7.875,2.168 -7.323,7.146 z"
     id="path36"
     style="fill:#1da0c3;fill-opacity:1" /><text
     xml:space="preserve"
     id="text834"
     style="font-style:normal;font-weight:normal;font-size:40px;line-height:1.25;font-family:sans-serif;white-space:pre;shape-inside:url(#rect836);fill:#000000;fill-opacity:1;stroke:none;" /><text
     xml:space="preserve"
     style="font-style:normal;font-weight:normal;font-size:40px;line-height:1.25;font-family:sans-serif;fill:#000000;fill-opacity:1;stroke:none"
     x="115.28822"
     y="43.776108"
     id="text842"><tspan
       sodipodi:role="line"
       id="tspan840"
       x="115.28822"
       y="43.776108" /></text><text
     xml:space="preserve"
     id="text844"
     style="font-size:40px;line-height:1.25;font-family:HelveticaNowMicro-Bold;-inkscape-font-specification:HelveticaNowMicro-Bold;white-space:pre;shape-inside:url(#rect846);" /><text
     xml:space="preserve"
     style="font-style:normal;font-variant:normal;font-weight:normal;font-stretch:normal;font-size:64px;line-height:1.25;font-family:'Open Sans';-inkscape-font-specification:'Open Sans'"
     x="99.133453"
     y="72.514618"
     id="text852"><tspan
       sodipodi:role="line"
       id="tspan850"
       x="99.133453"
       y="72.514618"
       style="font-style:normal;font-variant:normal;font-weight:normal;font-stretch:normal;font-size:64px;font-family:Helvetica;-inkscape-font-specification:Helvetica">groovetown</tspan></text></svg>
